<?xml version="1.0" encoding="UTF-8"?>
<svg id="Layer_1" data-name="Layer 1" xmlns="http://www.w3.org/2000/svg" viewBox="0 0 2400 800">
  <defs>
    <style>
      .cls-1 {
        fill: #fff;
      }
    </style>
  </defs>
  <path class="cls-1" d="M458.75,432.95c6.33,8.23,9.49,17.64,9.49,28.21,0,15.6-5.37,27.82-16.12,36.66-10.75,8.84-25.83,13.26-45.24,13.26h-90.74v-183.3h87.88c18.72,0,33.41,4.16,44.07,12.48,10.66,8.32,15.99,20.02,15.99,35.1,0,10.75-2.82,19.72-8.45,26.91-5.63,7.19-13.13,12.09-22.49,14.69,10.75,2.43,19.28,7.76,25.61,15.99ZM367.1,400.58h25.74c12.83,0,19.24-5.29,19.24-15.86s-6.41-16.38-19.24-16.38h-25.74v32.24ZM415.98,453.88c0-5.54-1.69-9.79-5.07-12.74-3.38-2.95-8.19-4.42-14.43-4.42h-29.38v33.28h29.64c12.83,0,19.24-5.37,19.24-16.12Z"/>
  <path class="cls-1" d="M536.36,318.68v192.4h-50.96v-192.4h50.96Z"/>
  <path class="cls-1" d="M560.15,398.5c5.46-11.27,12.91-19.93,22.36-26,9.45-6.07,19.98-9.1,31.59-9.1,10.05,0,18.72,1.99,26,5.98,7.28,3.99,12.91,9.36,16.9,16.12v-20.28h50.96v145.86h-50.96v-20.28c-3.99,6.76-9.66,12.13-17.03,16.12-7.37,3.99-15.99,5.98-25.87,5.98-11.61,0-22.14-3.03-31.59-9.1-9.45-6.07-16.9-14.78-22.36-26.13-5.46-11.35-8.19-24.57-8.19-39.65s2.73-28.25,8.19-39.52ZM649.33,415.92c-5.11-5.37-11.4-8.06-18.85-8.06s-13.95,2.64-18.98,7.93c-5.03,5.29-7.54,12.7-7.54,22.23s2.51,16.77,7.54,22.23c5.03,5.46,11.35,8.19,18.98,8.19s13.74-2.69,18.85-8.06c5.11-5.37,7.67-12.83,7.67-22.36s-2.56-16.73-7.67-22.1Z"/>
  <path class="cls-1" d="M867.34,380.69c9.88,11.18,14.82,26.3,14.82,45.37v85.02h-50.96v-78.26c0-8.32-2.17-14.86-6.5-19.63-4.33-4.77-10.14-7.15-17.42-7.15s-13.61,2.38-17.94,7.15c-4.33,4.77-6.5,11.31-6.5,19.63v78.26h-50.96v-145.86h50.96v20.8c4.51-6.59,10.57-11.92,18.2-15.99,7.63-4.07,16.38-6.11,26.26-6.11,16.81,0,30.16,5.59,40.04,16.77Z"/>
  <path class="cls-1" d="M996.29,511.08l-40.3-59.8v59.8h-50.96v-192.4h50.96v103.74l40.3-57.2h61.1l-57.46,73.32,58.5,72.54h-62.14Z"/>
  <path class="cls-1" d="M1206.63,448.42h-96.46c.52,7.97,2.73,13.91,6.63,17.81,3.9,3.9,8.88,5.85,14.95,5.85,8.49,0,14.56-3.81,18.2-11.44h54.34c-2.25,10.05-6.63,19.03-13.13,26.91-6.5,7.89-14.69,14.08-24.57,18.59-9.88,4.51-20.8,6.76-32.76,6.76-14.39,0-27.17-3.03-38.35-9.1-11.18-6.07-19.93-14.73-26.26-26-6.33-11.26-9.49-24.53-9.49-39.78s3.12-28.47,9.36-39.65,14.95-19.8,26.13-25.87c11.18-6.07,24.05-9.1,38.61-9.1s27.13,2.95,38.22,8.84c11.09,5.89,19.76,14.34,26,25.35,6.24,11.01,9.36,23.96,9.36,38.87,0,3.99-.26,7.97-.78,11.96ZM1155.41,423.72c0-6.24-2.08-11.13-6.24-14.69-4.16-3.55-9.36-5.33-15.6-5.33s-11.35,1.69-15.34,5.07c-3.99,3.38-6.59,8.36-7.8,14.95h44.98Z"/>
  <path class="cls-1" d="M1309.07,467.66v43.42h-22.1c-37.27,0-55.9-18.46-55.9-55.38v-48.1h-17.94v-42.38h17.94v-35.36h51.22v35.36h26.52v42.38h-26.52v48.88c0,3.99.91,6.85,2.73,8.58,1.82,1.73,4.9,2.6,9.23,2.6h14.82Z"/>
  <path class="cls-1" d="M1343.91,497.69c-13.69-10.14-21.06-24.66-22.1-43.55h54.34c.52,6.42,2.43,11.09,5.72,14.04,3.29,2.95,7.54,4.42,12.74,4.42,4.68,0,8.54-1.17,11.57-3.51,3.03-2.34,4.55-5.59,4.55-9.75,0-5.37-2.51-9.53-7.54-12.48-5.03-2.95-13.17-6.24-24.44-9.88-11.96-3.99-21.62-7.84-28.99-11.57-7.37-3.73-13.78-9.19-19.24-16.38-5.46-7.19-8.19-16.6-8.19-28.21s2.95-21.88,8.84-30.29c5.89-8.41,14.04-14.78,24.44-19.11,10.4-4.33,22.19-6.5,35.36-6.5,21.32,0,38.35,4.98,51.09,14.95,12.74,9.97,19.54,23.96,20.41,41.99h-55.38c-.17-5.55-1.86-9.71-5.07-12.48-3.21-2.77-7.32-4.16-12.35-4.16-3.81,0-6.93,1.13-9.36,3.38-2.43,2.25-3.64,5.46-3.64,9.62,0,3.47,1.34,6.46,4.03,8.97,2.69,2.51,6.02,4.68,10.01,6.5,3.99,1.82,9.88,4.12,17.68,6.89,11.61,3.99,21.19,7.93,28.73,11.83,7.54,3.9,14.04,9.36,19.5,16.38,5.46,7.02,8.19,15.9,8.19,26.65s-2.73,20.71-8.19,29.38c-5.46,8.67-13.35,15.51-23.66,20.54-10.31,5.03-22.49,7.54-36.53,7.54-21.32,0-38.83-5.07-52.52-15.21Z"/>
  <path class="cls-1" d="M1717.14,380.56c10.49,11.09,15.73,26.26,15.73,45.5v85.02h-50.96v-78.26c0-7.8-2.17-13.87-6.5-18.2-4.33-4.33-10.23-6.5-17.68-6.5s-13.35,2.17-17.68,6.5c-4.33,4.33-6.5,10.4-6.5,18.2v78.26h-50.96v-78.26c0-7.8-2.12-13.87-6.37-18.2-4.25-4.33-10.1-6.5-17.55-6.5s-13.61,2.17-17.94,6.5c-4.33,4.33-6.5,10.4-6.5,18.2v78.26h-50.96v-145.86h50.96v19.24c4.51-6.24,10.36-11.22,17.55-14.95,7.19-3.72,15.47-5.59,24.83-5.59,10.75,0,20.32,2.34,28.73,7.02,8.41,4.68,15.04,11.27,19.89,19.76,5.2-7.97,12.05-14.43,20.54-19.37,8.49-4.94,17.85-7.41,28.08-7.41,18.37,0,32.8,5.55,43.29,16.64Z"/>
  <path class="cls-1" d="M1759.51,344.29c-5.46-4.94-8.19-11.14-8.19-18.59s2.73-13.95,8.19-18.98c5.46-5.03,12.7-7.54,21.71-7.54s15.99,2.51,21.45,7.54c5.46,5.03,8.19,11.36,8.19,18.98s-2.73,13.65-8.19,18.59c-5.46,4.94-12.61,7.41-21.45,7.41s-16.25-2.47-21.71-7.41ZM1806.44,365.22v145.86h-50.96v-145.86h50.96Z"/>
  <path class="cls-1" d="M1916.42,467.66v43.42h-22.1c-37.27,0-55.9-18.46-55.9-55.38v-48.1h-17.94v-42.38h17.94v-35.36h51.22v35.36h26.52v42.38h-26.52v48.88c0,3.99.91,6.85,2.73,8.58,1.82,1.73,4.9,2.6,9.23,2.6h14.82Z"/>
  <path class="cls-1" d="M2070.21,380.69c9.79,11.18,14.69,26.3,14.69,45.37v85.02h-50.96v-78.26c0-8.32-2.17-14.86-6.5-19.63-4.33-4.77-10.14-7.15-17.42-7.15s-13.61,2.38-17.94,7.15c-4.33,4.77-6.5,11.31-6.5,19.63v78.26h-50.96v-192.4h50.96v67.34c4.51-6.59,10.62-11.92,18.33-15.99,7.71-4.07,16.6-6.11,26.65-6.11,16.64,0,29.86,5.59,39.65,16.77Z"/>
</svg>